<svg width="11" height="12" viewBox="0 0 11 12" fill="none" xmlns="http://www.w3.org/2000/svg">
<path d="M3.83335 3.45C4.15743 3.15 4.9136 1.55 5.12965 0.75C7.72224 1.95 9.66669 5.25 9.66669 7.05C9.66669 8.85 8.37039 11.25 5.12965 11.25C1.88891 11.25 0.916687 8.85 0.916687 7.05C0.916687 5.25 3.32095 3.92434 3.83335 3.45Z" stroke="white" stroke-linecap="round" stroke-linejoin="round"/>
<path d="M4.46979 7.01103C4.65244 6.848 5.0786 5.97847 5.20037 5.5437C6.66151 6.19585 7.75737 7.98926 7.75737 8.96748C7.75737 9.9457 7.0268 11.25 5.20037 11.25C3.37393 11.25 2.826 9.9457 2.826 8.96748C2.826 7.98926 4.18101 7.26882 4.46979 7.01103Z" stroke="white" stroke-linecap="round" stroke-linejoin="round"/>
</svg>
